<svg xmlns="http://www.w3.org/2000/svg" width="511" height="523" viewBox="0 0 511 523" font-family="Helvetica, Arial, sans-serif">
<rect width="100%" height="100%" fill="#fafafa"/>
<text x="70" y="34" font-size="18" font-weight="700" fill="#111">Smith Family Genogram</text>
<line x1="227.0" y1="93.0" x2="227.0" y2="93.0" stroke="#222" stroke-width="2" fill="none"/>
<line x1="343.0" y1="93.0" x2="343.0" y2="93.0" stroke="#222" stroke-width="2" fill="none"/>
<line x1="250.0" y1="93.0" x2="320.0" y2="93.0" stroke="#222" stroke-width="2" fill="none"/>
<line x1="285.0" y1="93.0" x2="285.0" y2="168.0" stroke="#222" stroke-width="2" fill="none"/>
<line x1="131.0" y1="168.0" x2="381.0" y2="168.0" stroke="#222" stroke-width="2" fill="none"/>
<line x1="131.0" y1="168.0" x2="131.0" y2="220.0" stroke="#222" stroke-width="2" fill="none" />
<line x1="381.0" y1="168.0" x2="381.0" y2="220.0" stroke="#222" stroke-width="2" fill="none" />
<line x1="131.0" y1="243.0" x2="131.0" y2="243.0" stroke="#222" stroke-width="2" fill="none"/>
<line x1="247.0" y1="243.0" x2="247.0" y2="243.0" stroke="#222" stroke-width="2" fill="none"/>
<line x1="154.0" y1="243.0" x2="224.0" y2="243.0" stroke="#222" stroke-width="2" fill="none"/>
<line x1="179.0" y1="233.0" x2="187.0" y2="253.0" stroke="#222" stroke-width="2" fill="none"/>
<line x1="191.0" y1="233.0" x2="199.0" y2="253.0" stroke="#222" stroke-width="2" fill="none"/>
<line x1="189.0" y1="243.0" x2="189.0" y2="318.0" stroke="#222" stroke-width="2" fill="none"/>
<line x1="93.0" y1="318.0" x2="285.0" y2="318.0" stroke="#222" stroke-width="2" fill="none"/>
<line x1="93.0" y1="318.0" x2="93.0" y2="370.0" stroke="#222" stroke-width="2" fill="none" />
<line x1="189.0" y1="318.0" x2="189.0" y2="370.0" stroke="#222" stroke-width="2" fill="none" />
<line x1="285.0" y1="318.0" x2="285.0" y2="370.0" stroke="#222" stroke-width="2" fill="none" />
<line x1="381.0" y1="266.0" x2="381.0" y2="318.0" stroke="#222" stroke-width="2" fill="none" stroke-dasharray="5 4"/>
<line x1="381.0" y1="318.0" x2="381.0" y2="318.0" stroke="#222" stroke-width="2" fill="none" stroke-dasharray="5 4"/>
<line x1="381.0" y1="318.0" x2="381.0" y2="370.0" stroke="#222" stroke-width="2" fill="none" stroke-dasharray="5 4"/>
<line x1="90.9" y1="390.9" x2="244.9" y2="240.9" stroke="#1976d2" stroke-width="1.6" />
<line x1="95.1" y1="395.1" x2="249.1" y2="245.1" stroke="#1976d2" stroke-width="1.6" />
<path d="M 131 243 L 133.6 257.0 L 118.9 266.5 L 127.3 282.0 L 112.5 291.5 L 121.0 307.0 L 106.2 316.5 L 114.6 332.0 L 99.9 341.5 L 108.3 357.0 L 93.5 366.5 L 102.0 382.0 L 93 393" stroke="#e53935" stroke-width="1.6" fill="none"/>
<line x1="93.0" y1="389.0" x2="189.0" y2="389.0" stroke="#1976d2" stroke-width="1.6" />
<line x1="93.0" y1="393.0" x2="189.0" y2="393.0" stroke="#1976d2" stroke-width="1.6" />
<line x1="93.0" y1="397.0" x2="189.0" y2="397.0" stroke="#1976d2" stroke-width="1.6" />
<rect x="204" y="70" width="46" height="46" fill="#e57373" stroke="#222" stroke-width="2"/>
<line x1="204.0" y1="70.0" x2="250.0" y2="116.0" stroke="#222" stroke-width="2"/>
<line x1="250.0" y1="70.0" x2="204.0" y2="116.0" stroke="#222" stroke-width="2"/>
<text x="227" y="131" text-anchor="middle" font-size="12" font-weight="600" fill="#111">George Smith</text>
<text x="227" y="145" text-anchor="middle" font-size="10" fill="#555">1940–2009</text>
<text x="227" y="158" text-anchor="middle" font-size="9" fill="#777">Heart disease</text>
<circle cx="343" cy="93" r="23" fill="#64b5f6" stroke="#222" stroke-width="2"/>
<text x="343" y="131" text-anchor="middle" font-size="12" font-weight="600" fill="#111">Margaret Smith</text>
<text x="343" y="145" text-anchor="middle" font-size="10" fill="#555">1943</text>
<text x="343" y="158" text-anchor="middle" font-size="9" fill="#777">Depression</text>
<rect x="108" y="220" width="46" height="46" fill="#ffb74d" stroke="#222" stroke-width="2"/>
<text x="131" y="281" text-anchor="middle" font-size="12" font-weight="600" fill="#111">David Smith</text>
<text x="131" y="295" text-anchor="middle" font-size="10" fill="#555">1968</text>
<text x="131" y="308" text-anchor="middle" font-size="9" fill="#777">Alcohol use</text>
<circle cx="247" cy="243" r="23" fill="#ffffff" stroke="#222" stroke-width="2"/>
<text x="247" y="281" text-anchor="middle" font-size="12" font-weight="600" fill="#111">Susan Smith</text>
<text x="247" y="295" text-anchor="middle" font-size="10" fill="#555">1970</text>
<circle cx="381" cy="243" r="23" fill="#ffffff" stroke="#222" stroke-width="2"/>
<text x="381" y="281" text-anchor="middle" font-size="12" font-weight="600" fill="#111">Linda Smith</text>
<text x="381" y="295" text-anchor="middle" font-size="10" fill="#555">1971</text>
<circle cx="93" cy="393" r="27" fill="none" stroke="#222" stroke-width="1"/>
<path d="M 46 440 L 68 418" stroke="#222" stroke-width="2" fill="none"/>
<path d="M 68 418 l -10 0 m 10 0 l 0 -10" stroke="#222" stroke-width="2" fill="none"/>
<circle cx="93" cy="393" r="23" fill="#ffffff" stroke="#222" stroke-width="2"/>
<text x="93" y="431" text-anchor="middle" font-size="12" font-weight="600" fill="#111">Anna Smith</text>
<text x="93" y="445" text-anchor="middle" font-size="10" fill="#555">1995</text>
<rect x="166" y="370" width="46" height="46" fill="#81c784" stroke="#222" stroke-width="2"/>
<text x="189" y="431" text-anchor="middle" font-size="12" font-weight="600" fill="#111">Ben Smith</text>
<text x="189" y="445" text-anchor="middle" font-size="10" fill="#555">1995</text>
<text x="189" y="458" text-anchor="middle" font-size="9" fill="#777">Asthma</text>
<polygon points="285,379 299,407 271,407" fill="#eee" stroke="#222" stroke-width="2"/>
<line x1="271.0" y1="379.0" x2="299.0" y2="407.0" stroke="#222" stroke-width="2"/>
<line x1="299.0" y1="379.0" x2="271.0" y2="407.0" stroke="#222" stroke-width="2"/>
<text x="285" y="423" text-anchor="middle" font-size="11" fill="#333">Miscarriage</text>
<rect x="358" y="370" width="46" height="46" fill="#ffffff" stroke="#222" stroke-width="2"/>
<text x="381" y="431" text-anchor="middle" font-size="12" font-weight="600" fill="#111">Ethan</text>
<text x="381" y="445" text-anchor="middle" font-size="10" fill="#555">2001</text>
</svg>